<svg viewBox="0 0 14 14" fill="none" xmlns="http://www.w3.org/2000/svg">
<g clip-path="url(#clip0_37400_995)">
<path d="M10.4999 5.83343L8.1666 3.5001M1.45825 12.5418L3.43247 12.3224C3.67367 12.2956 3.79427 12.2822 3.907 12.2457C4.007 12.2133 4.10218 12.1676 4.18994 12.1097C4.28885 12.0445 4.37465 11.9587 4.54626 11.7871L12.2499 4.08343C12.8943 3.4391 12.8943 2.39443 12.2499 1.75009C11.6056 1.10576 10.5609 1.10576 9.9166 1.75009L2.21293 9.45375C2.04132 9.62536 1.95552 9.71116 1.89029 9.81008C1.83242 9.89783 1.78668 9.99301 1.7543 10.093C1.71781 10.2057 1.70441 10.3263 1.67761 10.5675L1.45825 12.5418Z" stroke="black" stroke-opacity="0.8" stroke-width="1.2" stroke-linecap="round" stroke-linejoin="round"/>
</g>
<defs>
<clipPath id="clip0_37400_995">
<rect width="14" height="14" fill="white"/>
</clipPath>
</defs>
</svg>
