<svg aria-hidden="true" style="position:absolute;width:0;height:0" xmlns="http://www.w3.org/2000/svg" overflow="hidden"><defs><symbol id="icon-logout" viewBox="0 0 32 32"><path fill="var(--color1, #bdbdbd)" d="M20.052 23.236h2.498v4.999a3.752 3.752 0 0 1-3.747 3.748H3.749a3.752 3.752 0 0 1-3.748-3.747V3.749A3.752 3.752 0 0 1 3.748.001h15.054a3.752 3.752 0 0 1 3.748 3.747v4.999h-2.496V3.751v-.002c0-.69-.56-1.25-1.25-1.25H3.748c-.69.001-1.249.56-1.25 1.25v24.487c0 .688.562 1.248 1.25 1.248h15.054a1.25 1.25 0 0 0 1.25-1.248v-5.001zm6.058-13.135l-1.767 1.767 2.875 2.873h-16.16v2.5h16.16l-2.875 2.873 1.767 1.767 5.89-5.89-5.89-5.89z"/></symbol><symbol id="icon-wallet" viewBox="0 0 32 32"><path fill="var(--color2, #24cca7)" d="M3.755 7.619l16.213-4.538-.859-1.779C18.546.146 17.176-.331 16.048.245L1.536 7.619h2.219zm21.058-4.572c-.195 0-.39.029-.586.087L9.216 7.618h18.431l-.693-2.779c-.266-1.084-1.163-1.792-2.14-1.792z"/><path fill="var(--color3, #4a56e2)" d="M28.359 8.573H1.796c-.821 0-1.514.55-1.729 1.303l-.003.013a1.9 1.9 0 0 0-.064.467v19.863A1.79 1.79 0 0 0 1.796 32h26.56a1.79 1.79 0 0 0 1.796-1.782v-4.974H19.491c-1.685 0-3.055-1.358-3.055-3.029v-3.967c0-.819.331-1.565.866-2.11a3.027 3.027 0 0 1 2.174-.917h10.677v-4.864a1.785 1.785 0 0 0-1.786-1.781h-.007z"/><path fill="var(--color3, #4a56e2)" d="M31.413 16.926a1.787 1.787 0 0 0-1.208-.467H19.491c-.992 0-1.797.8-1.797 1.783v3.968a1.79 1.79 0 0 0 1.797 1.781h10.713c.205 0 .398-.035.581-.096.238-.078.449-.206.629-.37A1.77 1.77 0 0 0 32 22.21v-3.968c0-.521-.226-.992-.587-1.316zm-8.17 3.654a.896.896 0 0 1-.896.892h-.601a.896.896 0 0 1-.896-.892v-.592a.87.87 0 0 1 .346-.699.909.909 0 0 1 .552-.192h.6c.493 0 .893.398.896.89v.592z"/></symbol></defs></svg>