<svg aria-hidden="true" style="position: absolute; width: 0; height: 0; overflow: hidden;" version="1.1" xmlns="http://www.w3.org/2000/svg" xmlns:xlink="http://www.w3.org/1999/xlink">
<defs>
<symbol id="icon-lock" viewBox="0 0 24 32">
<path fill="#e0e0e0" style="fill: var(--color1, #e0e0e0)" d="M21.333 10.667h-1.524v-3.048c0-4.206-3.413-7.619-7.619-7.619s-7.619 3.413-7.619 7.619v3.048h-1.524c-1.676 0-3.048 1.371-3.048 3.048v15.238c0 1.676 1.371 3.048 3.048 3.048h18.286c1.676 0 3.048-1.371 3.048-3.048v-15.238c0-1.676-1.371-3.048-3.048-3.048zM12.19 24.381c-1.676 0-3.048-1.371-3.048-3.048s1.371-3.048 3.048-3.048c1.676 0 3.048 1.371 3.048 3.048s-1.371 3.048-3.048 3.048zM16.914 10.667h-9.448v-3.048c0-2.606 2.118-4.724 4.724-4.724s4.724 2.118 4.724 4.724v3.048z"></path>
</symbol>
<symbol id="icon-wave-tablet" viewBox="0 0 96 32">
<path d="M7.703 13.27l-7.703 8.022v4.942c0 3.184 2.581 5.766 5.766 5.766h81.874c4.777 0 8.649-3.872 8.649-8.649v-16.409c-0.351-0.218-0.862-0.291-1.079-0.309-1.689-0.133-2.657 1.137-4.005 2.314l-0.017 0.015c-0.399 0.348-1.396 1.22-3.219 1.22-1.849 0-3.133-0.823-3.543-1.234l-6.162-6.48c-0.822-0.823-2.619-2.468-4.622-2.468s-3.595 1.646-4.314 2.468l-28.501 27.617c-0.462 0.514-1.88 1.543-3.852 1.543s-3.389-1.028-3.852-1.543l-16.485-17.588c-0.565-0.617-2.219-1.851-4.314-1.851s-3.954 1.748-4.622 2.623z"></path>
</symbol>
<symbol id="icon-wave-mobile" viewBox="0 0 96 32">
<path d="M7.708 13.27l-7.708 8.022v3.826c0 3.801 3.081 6.882 6.882 6.882h79.14c5.701 0 10.323-4.622 10.323-10.323v-14.735c-0.351-0.218-0.862-0.291-1.079-0.309-1.689-0.133-2.658 1.137-4.008 2.314l-0.017 0.015c-0.399 0.348-1.397 1.22-3.22 1.22-1.85 0-3.134-0.823-3.545-1.234l-6.166-6.48c-0.822-0.823-2.621-2.468-4.625-2.468s-3.597 1.646-4.316 2.468l-28.518 27.617c-0.462 0.514-1.881 1.543-3.854 1.543s-3.391-1.029-3.854-1.543l-16.494-17.588c-0.565-0.617-2.22-1.851-4.316-1.851s-3.957 1.748-4.625 2.623z"></path>
</symbol>
<symbol id="icon-wave-desktop" viewBox="0 0 83 32">
<path d="M6.648 11.418l-6.648 6.903v8.903c0 2.638 2.138 4.776 4.776 4.776h71.164c3.957 0 7.164-3.207 7.164-7.164v-18.862c-0.303-0.188-0.744-0.251-0.931-0.266-1.457-0.115-2.293 0.978-3.457 1.991l-0.015 0.013c-0.344 0.3-1.205 1.049-2.778 1.049-1.596 0-2.704-0.708-3.058-1.062l-5.319-5.575c-0.709-0.708-2.26-2.124-3.989-2.124s-3.103 1.416-3.723 2.124l-24.599 23.764c-0.399 0.442-1.622 1.328-3.324 1.328s-2.925-0.885-3.324-1.328l-14.227-15.134c-0.488-0.531-1.915-1.593-3.723-1.593s-3.413 1.505-3.989 2.257z"></path>
</symbol>
<symbol id="icon-name" viewBox="0 0 34 32">
<path fill="#e0e0e0" style="fill: var(--color1, #e0e0e0)" d="M0.889 3.556v24.889c0 1.956 1.582 3.556 3.556 3.556h24.889c1.956 0 3.556-1.6 3.556-3.556v-24.889c0-1.956-1.6-3.556-3.556-3.556h-24.889c-1.973 0-3.556 1.6-3.556 3.556zM22.222 10.667c0 2.951-2.382 5.333-5.333 5.333s-5.333-2.382-5.333-5.333c0-2.951 2.382-5.333 5.333-5.333s5.333 2.382 5.333 5.333zM6.222 24.889c0-3.556 7.111-5.511 10.667-5.511s10.667 1.956 10.667 5.511v1.778h-21.333v-1.778z"></path>
</symbol>
<symbol id="icon-groupwallet" viewBox="0 0 32 32">
<path fill="#24cca7" style="fill: var(--color2, #24cca7)" d="M3.755 7.619l16.211-4.537-0.858-1.779c-0.562-1.157-1.932-1.634-3.060-1.058l-14.513 7.375h2.219z"></path>
<path fill="#24cca7" style="fill: var(--color2, #24cca7)" d="M24.813 3.048c-0.195 0-0.391 0.029-0.586 0.087l-15.012 4.484h18.431l-0.693-2.779c-0.266-1.083-1.163-1.793-2.14-1.793z"></path>
<path fill="#4a56e2" style="fill: var(--color3, #4a56e2)" d="M28.36 8.573h-26.559c-0.568 0-1.074 0.26-1.405 0.67-0.151 0.189-0.266 0.406-0.331 0.645-0.040 0.15-0.065 0.307-0.065 0.467v19.862c0 0.984 0.805 1.783 1.797 1.783h26.559c0.992 0 1.797-0.799 1.797-1.783v-4.973h-10.662c-1.685 0-3.055-1.358-3.055-3.030v-3.964c0-0.82 0.331-1.565 0.866-2.111 0.474-0.485 1.11-0.813 1.822-0.895 0.119-0.014 0.241-0.021 0.363-0.021h10.665v-4.867c0.004-0.984-0.801-1.783-1.793-1.783z"></path>
<path fill="#4a56e2" style="fill: var(--color3, #4a56e2)" d="M31.414 16.926c-0.18-0.164-0.392-0.289-0.629-0.371-0.183-0.061-0.377-0.096-0.582-0.096h-10.712c-0.992 0-1.797 0.799-1.797 1.783v3.968c0 0.984 0.805 1.783 1.797 1.783h10.712c0.205 0 0.399-0.036 0.582-0.096 0.237-0.078 0.449-0.207 0.629-0.371 0.359-0.324 0.586-0.795 0.586-1.316v-3.968c0-0.521-0.226-0.991-0.586-1.316zM23.243 20.58c0 0.492-0.402 0.891-0.898 0.891h-0.596c-0.496 0-0.898-0.399-0.898-0.891v-0.592c0-0.285 0.133-0.538 0.345-0.699 0.154-0.118 0.345-0.193 0.553-0.193h0.596c0.496 0 0.898 0.399 0.898 0.891v0.592z"></path>
</symbol>
<symbol id="icon-email" viewBox="0 0 40 32">
<path fill="#e0e0e0" style="fill: var(--color1, #e0e0e0)" d="M36 0h-32c-2.2 0-3.98 1.8-3.98 4l-0.020 24c0 2.2 1.8 4 4 4h32c2.2 0 4-1.8 4-4v-24c0-2.2-1.8-4-4-4zM36 8l-16 10-16-10v-4l16 10 16-10v4z"></path>
</symbol>
<symbol id="icon-ellipse-purple" viewBox="0 0 48 32">
<path fill="#c5baff" style="fill: var(--color4, #c5baff)" d="M41.001 34.876c-7.38 12.553-22.509 15.409-35.804 12.032-15.32-4.643-21.586-20.896-17.211-35.328 4.058-13.389 19.997-9.72 33.197-11.244 24.443-2.624 33.942 12.341 19.818 34.54z"></path>
</symbol>
<symbol id="icon-ellipse-pink" viewBox="0 0 46 32">
<path fill="#ffd8d0" style="fill: var(--color5, #ffd8d0)" d="M46.129 22.271c-7.358 10.303-20.68 11.612-31.934 7.663-12.91-5.201-17.085-19.758-12.185-31.92 4.546-11.283 18.067-6.878 29.616-7.181 21.37-0.39 28.445 13.301 14.503 31.439z"></path>
</symbol>
<symbol id="icon-edit_icon" viewBox="0 0 32 32">
<path stroke-linejoin="round" stroke-linecap="round" stroke-miterlimit="4" stroke-width="2.7429" d="M24 13.334l-5.333-5.333M3.333 28.667l4.513-0.502c0.551-0.061 0.827-0.092 1.085-0.175 0.229-0.074 0.446-0.178 0.647-0.311 0.226-0.149 0.422-0.345 0.814-0.737l17.608-17.608c1.473-1.473 1.473-3.861 0-5.333s-3.861-1.473-5.333 0l-17.608 17.608c-0.392 0.392-0.588 0.588-0.737 0.814-0.132 0.201-0.237 0.418-0.311 0.647-0.083 0.258-0.114 0.533-0.175 1.085l-0.501 4.513z"></path>
</symbol>
<symbol id="icon-btnOpenModal" viewBox="0 0 32 32">
<path fill="#24cca7" style="fill: var(--color2, #24cca7)" d="M25.863 13.589c0 5.326-4.318 9.644-9.644 9.644s-9.644-4.318-9.644-9.644c0-5.326 4.318-9.644 9.644-9.644s9.644 4.318 9.644 9.644z"></path>
<path fill="none" stroke="#fff" style="stroke: var(--color6, #fff)" stroke-linejoin="miter" stroke-linecap="butt" stroke-miterlimit="4" stroke-width="0.8767" d="M16.219 9.205v8.767M11.836 13.589h8.767"></path>
</symbol>
<symbol id="icon-arrow" viewBox="0 0 58 32">
<path stroke-linejoin="miter" stroke-linecap="butt" stroke-miterlimit="4" stroke-width="2.9091" d="M2.909 2.909l26.182 26.182 26.182-26.182"></path>
</symbol>
</defs>
</svg>
