<svg width="18" height="20" viewBox="0 0 18 20" fill="none" xmlns="http://www.w3.org/2000/svg">
<path d="M6 9H4V11H6V9ZM10 9H8V11H10V9ZM14 9H12V11H14V9ZM16 2H15V0H13V2H5V0H3V2H2C0.89 2 0.00999999 2.9 0.00999999 4L0 18C0 19.1 0.89 20 2 20H16C17.1 20 18 19.1 18 18V4C18 2.9 17.1 2 16 2ZM16 18H2V7H16V18Z" fill="#4A56E2"/>
<!-- Generated by IcoMoon.io -->
<svg version="1.1" xmlns="http://www.w3.org/2000/svg" width="58" height="32" viewBox="0 0 58 32">
<title>Vector-20</title>
<path fill="none" stroke-linejoin="miter" stroke-linecap="butt" stroke-miterlimit="4" stroke-width="2.9091" stroke="#000" d="M2.909 2.909l26.182 26.182 26.182-26.182"></path>
</svg>
